HIERARCHY
ROOT root
{
	OFFSET 0.000000 0.000000 0.000000
	CHANNELS 6 Xposition Yposition Zposition Zrotation Yrotation Xrotation
	JOINT lhip
	{
		OFFSET 0.058581 -0.082280 -0.017664
		CHANNELS 3 Zrotation Yrotation Xrotation
		JOINT lknee
		{
			OFFSET 0.043451 -0.386469 0.008037
			CHANNELS 3 Zrotation Yrotation Xrotation
			JOINT lankle
			{
				OFFSET -0.014790 -0.426874 -0.037428
				CHANNELS 3 Zrotation Yrotation Xrotation
				JOINT ltoe
				{
					OFFSET 0.041054 -0.060286 0.122042
					CHANNELS 3 Zrotation Yrotation Xrotation
					End Site
					{
						OFFSET 0.000000 0.000000 0.000000
					}
				}
			}
		}
	}
	JOINT rhip
	{
		OFFSET -0.060310 -0.090513 -0.013543
		CHANNELS 3 Zrotation Yrotation Xrotation
		JOINT rknee
		{
			OFFSET -0.043257 -0.383688 -0.004843
			CHANNELS 3 Zrotation Yrotation Xrotation
			JOINT rankle
			{
				OFFSET 0.019056 -0.420046 -0.034562
				CHANNELS 3 Zrotation Yrotation Xrotation
				JOINT rtoe
				{
					OFFSET -0.034840 -0.062106 0.130323
					CHANNELS 3 Zrotation Yrotation Xrotation
					End Site
					{
						OFFSET 0.000000 0.000000 0.000000
					}
				}
			}
		}
	}
	JOINT lowerback
	{
		OFFSET 0.004439 0.124404 -0.038385
		CHANNELS 3 Zrotation Yrotation Xrotation
		JOINT upperback
		{
			OFFSET 0.004488 0.137956 0.026820
			CHANNELS 3 Zrotation Yrotation Xrotation
			JOINT chest
			{
				OFFSET -0.002265 0.056032 0.002855
				CHANNELS 3 Zrotation Yrotation Xrotation
				JOINT lowerneck
				{
					OFFSET -0.013390 0.211636 -0.033468
					CHANNELS 3 Zrotation Yrotation Xrotation
					JOINT upperneck
					{
						OFFSET 0.010113 0.088937 0.050410
						CHANNELS 3 Zrotation Yrotation Xrotation
						End Site
						{
							OFFSET 0.000000 0.000000 0.000000
						}
					}
				}
				JOINT lclavicle
				{
					OFFSET 0.071702 0.114000 -0.018898
					CHANNELS 3 Zrotation Yrotation Xrotation
					JOINT lshoulder
					{
						OFFSET 0.122921 0.045205 -0.019046
						CHANNELS 3 Zrotation Yrotation Xrotation
						JOINT lelbow
						{
							OFFSET 0.255332 -0.015649 -0.022946
							CHANNELS 3 Zrotation Yrotation Xrotation
							JOINT lwrist
							{
								OFFSET 0.265709 0.012698 -0.007375
								CHANNELS 3 Zrotation Yrotation Xrotation
								End Site
								{
									OFFSET 0.000000 0.000000 0.000000
								}
							}
						}
					}
				}
				JOINT rclavicle
				{
					OFFSET -0.082954 0.112472 -0.023707
					CHANNELS 3 Zrotation Yrotation Xrotation
					JOINT rshoulder
					{
						OFFSET -0.113228 0.046853 -0.008472
						CHANNELS 3 Zrotation Yrotation Xrotation
						JOINT relbow
						{
							OFFSET -0.260127 -0.014369 -0.031269
							CHANNELS 3 Zrotation Yrotation Xrotation
							JOINT rwrist
							{
								OFFSET -0.269108 0.006794 -0.006027
								CHANNELS 3 Zrotation Yrotation Xrotation
								End Site
								{
									OFFSET 0.000000 0.000000 0.000000
								}
							}
						}
					}
				}
			}
		}
	}
}
MOTION
Frames: 13
Frame Time: 0.033333
0.006533 0.747990 1.341904 -171.389237 -2.051811 89.356326 6.270565 -0.546912 -7.820266 -4.255441 -14.418446 8.760734 -17.854061 -0.060751 11.541785 0.000000 -0.000000 0.000000 -2.606301 -2.857749 -1.432631 -0.037282 5.005851 17.728248 14.246478 1.500749 10.930235 0.000000 -0.000000 0.000000 -0.596594 2.718133 21.032381 4.512158 -4.275479 1.318481 4.114964 -0.623521 -1.623653 -4.979714 -0.005244 -8.922575 0.065789 -7.859305 -3.139414 -20.862937 -4.779275 2.004254 -32.989773 -4.593646 4.181004 24.838002 -59.038361 -7.674545 -8.515800 -19.697939 -4.505159 23.820622 3.179811 2.602435 38.456185 -8.571471 4.378749 -22.701474 41.805690 -11.335797 4.983857 8.619811 -0.851435 
0.008786 0.758742 1.358460 -172.090981 -1.914926 88.864831 6.474634 0.383984 -8.172717 -4.649549 -14.223802 8.765297 -18.485776 -1.124156 9.447434 0.000000 -0.000000 0.000000 -3.365066 -4.297188 -1.952598 -0.118236 4.961014 16.622013 15.367580 1.965732 10.157262 0.000000 -0.000000 0.000000 -0.329913 3.388934 21.981690 4.410763 -3.905912 0.957358 4.218549 -0.459447 -1.023193 -4.532229 -0.286829 -8.114971 0.454208 -7.506809 -3.669257 -21.567730 -4.682188 2.028558 -33.358507 -4.328870 5.047843 22.674407 -60.711382 -5.112468 -7.611740 -19.818888 -5.011318 23.763696 3.143111 2.246385 38.065495 -8.451682 4.334115 -21.955775 43.737134 -10.759003 4.209708 9.254563 -1.123730 
0.011897 0.769901 1.372449 -172.972331 -1.896410 88.938117 6.735169 -0.456876 -9.398250 -5.280133 -13.966671 9.187362 -19.048509 -2.200755 7.173198 0.000000 -0.000000 0.000000 -4.216861 -4.001265 -4.294092 0.009471 3.766223 17.293456 17.373061 2.277894 9.964807 0.000000 -0.000000 0.000000 -0.619013 3.990246 22.552346 4.515589 -3.456539 1.184542 4.306705 -0.167358 -1.188271 -3.864584 -0.535048 -6.701260 1.043567 -7.176984 -5.604822 -22.715865 -3.976774 2.521161 -33.816607 -3.771962 6.126820 22.754357 -62.738143 -5.669503 -5.393559 -20.125934 -5.764199 24.331303 2.993320 2.491653 37.388329 -8.059197 4.678465 -21.699160 46.003426 -11.105126 1.489074 10.115670 -1.502731 
0.015214 0.778871 1.375056 -173.620642 -1.779971 89.466589 7.166117 -2.512655 -11.233622 -5.600044 -13.802791 9.995639 -18.881139 -2.651398 5.013812 0.000000 -0.000000 0.000000 -4.644354 -1.857232 -7.525965 0.283808 2.580943 19.487151 18.497927 2.505182 9.001118 0.000000 -0.000000 0.000000 -0.971724 4.067545 22.495911 4.685214 -3.135974 2.307347 4.152857 0.060035 -2.110012 -3.228023 -0.022755 -5.961701 1.090713 -7.288583 -7.042189 -23.385943 -3.144716 3.075784 -34.665055 -3.090077 6.879725 24.275338 -63.736090 -7.706332 -3.846347 -20.350299 -6.170688 25.216893 3.073736 3.312841 37.029021 -7.070576 5.187710 -22.237952 46.977067 -12.052248 -1.080961 10.701990 -1.938855 
0.018493 0.789227 1.365014 -174.050614 -1.594413 89.737842 7.589081 -3.966289 -12.692549 -5.625000 -13.623955 10.784531 -18.067835 -2.647047 3.231173 0.000000 -0.000000 0.000000 -4.844850 0.198236 -10.082846 0.593358 2.762513 21.375086 18.460846 3.059489 7.582705 0.000000 -0.000000 0.000000 -1.133262 3.893015 22.273113 4.826862 -2.950477 3.501722 3.918084 0.146072 -2.776706 -3.047911 0.763836 -5.968636 0.614882 -7.732409 -7.241021 -23.568633 -2.716713 3.599571 -35.879461 -2.489890 7.197513 25.144496 -63.464714 -8.557008 -3.551472 -20.231096 -6.217000 25.914738 3.314305 4.011039 37.108423 -6.112863 5.493593 -22.919086 46.952589 -12.631013 -1.954736 10.834061 -2.301086 
0.022217 0.807378 1.336070 -174.064920 -1.445249 88.918952 7.558456 -3.954052 -12.660900 -5.514499 -13.803469 11.260921 -16.637099 -2.558053 1.343169 0.000000 -0.000000 0.000000 -4.902761 0.783280 -10.777312 0.686839 4.470215 21.769445 17.886966 3.563321 6.421269 0.000000 -0.000000 0.000000 -1.125264 3.600397 22.559787 4.801582 -2.984618 3.756045 3.775617 0.017550 -2.234874 -3.356441 1.221781 -6.273259 -0.007025 -8.112134 -6.176882 -23.186699 -2.490260 3.794851 -37.431340 -2.028293 7.343223 23.256227 -62.052077 -6.331687 -3.861122 -19.887258 -6.468396 26.066417 3.341242 4.054208 37.880390 -5.649167 5.815724 -22.943961 46.406224 -12.387424 -1.047898 10.377613 -2.250880 
0.024850 0.824962 1.300982 -173.531852 -1.335774 87.692113 7.238658 -3.083548 -11.682632 -5.518090 -13.923882 11.607884 -15.388840 -2.281836 -0.381419 0.000000 -0.000000 0.000000 -4.827916 -0.069164 -9.840668 0.442596 5.692885 20.862510 17.112729 2.951957 5.931823 0.000000 -0.000000 0.000000 -0.966437 3.299152 23.013144 4.637758 -3.211666 3.024796 3.777913 -0.246520 -1.043641 -3.739954 0.994360 -6.481087 -0.284642 -7.880767 -4.788905 -22.722194 -2.249659 3.653845 -38.255240 -1.736973 7.360570 20.542125 -60.863534 -3.141746 -4.309526 -19.608193 -6.834875 25.668803 2.968931 3.469114 38.771205 -6.078169 6.214700 -22.138231 46.150007 -11.404496 0.796532 9.770736 -2.155921 
0.027258 0.842822 1.255329 -172.720717 -1.181891 86.777201 6.944544 -2.364955 -10.957211 -5.612611 -13.529932 12.404459 -14.074259 -1.617367 -2.205570 0.000000 -0.000000 0.000000 -4.748999 -0.897929 -9.003436 0.144130 5.745024 19.964897 15.969517 1.478924 5.561648 0.000000 -0.000000 0.000000 -0.877378 2.978952 22.782475 4.549215 -3.486566 2.443591 3.803648 -0.538729 -0.182019 -4.054086 0.296254 -6.182525 -0.221767 -7.346153 -3.966531 -22.450643 -1.815189 3.748622 -38.684755 -1.511115 7.113648 18.669723 -60.163121 -0.939746 -4.789533 -19.303510 -7.191280 25.154568 2.249787 2.949706 39.564702 -6.990897 6.518963 -21.099185 46.333429 -10.131996 3.101122 9.229321 -2.553213 
0.029395 0.860108 1.198260 -171.907942 -1.056820 86.363633 6.836852 -2.966478 -10.473059 -6.476444 -14.015685 13.474491 -10.493978 1.053936 -3.884240 0.000000 -0.000000 0.000000 -4.850178 -0.847591 -8.566955 0.811660 5.945495 19.432387 13.269771 -1.271314 6.203664 0.000000 -0.000000 0.000000 -0.974921 2.445774 21.695796 4.602569 -3.381061 2.199283 3.524654 -0.824818 0.571368 -4.001671 -0.699405 -6.423380 -0.218672 -6.833095 -3.177618 -22.647161 0.167117 4.215243 -37.989946 -3.272451 7.808380 17.345263 -59.787484 0.326709 -2.114614 -18.390579 -9.364053 24.862091 0.028853 2.843829 40.092114 -6.293599 8.537910 -21.202106 45.913741 -8.865235 4.705314 9.581376 -4.728547 
0.031892 0.877081 1.131296 -171.403420 -0.935369 85.925325 6.570128 -3.127402 -10.429556 -7.385698 -13.789662 16.624582 -8.702159 2.032137 -3.537075 0.000000 -0.000000 0.000000 -4.725136 -0.349638 -8.341576 1.147889 5.723215 20.135951 12.598578 -1.940684 9.169470 0.000000 -0.000000 0.000000 -1.332109 2.142129 20.543642 4.730944 -3.279875 2.542183 3.316809 -0.872921 0.335728 -3.915747 -1.354815 -6.000752 0.166822 -6.327560 -2.716196 -22.816251 1.186582 4.607107 -37.539980 -3.560357 7.713170 17.982180 -60.295258 -0.585946 -1.387518 -18.092268 -10.018881 24.761277 -1.260361 3.187810 40.346958 -6.815901 9.253165 -20.754447 46.296515 -7.815646 5.267438 9.702857 -5.491065 
0.034630 0.894246 1.053680 -171.241095 -0.627792 84.947344 6.434695 -3.039966 -10.016294 -8.570868 -13.633785 21.392429 -6.947403 3.268580 -5.011975 0.000000 -0.000000 0.000000 -4.131460 1.261185 -7.628249 2.411016 7.793047 24.487755 10.461894 -0.256083 -0.918458 0.000000 -0.000000 0.000000 -1.534694 1.898892 20.072705 4.831760 -3.070091 2.517533 2.984902 -0.756602 0.530368 -3.137254 -0.497406 -6.148485 -0.056636 -6.766190 -1.817754 -22.501284 1.514552 4.138687 -37.399628 -3.226816 7.598120 18.279107 -61.068301 -1.010072 -0.165800 -17.653340 -10.745643 24.619790 -1.667506 3.098606 40.719562 -7.859045 9.368576 -19.705336 46.752164 -5.823981 4.221095 9.791917 -5.778022 
0.037846 0.911184 0.972010 -171.368435 0.471349 82.934724 6.843326 -1.651206 -10.044764 -10.213746 -14.699558 30.256640 -0.748515 5.304839 -20.452804 0.000000 -0.000000 0.000000 -2.033587 3.086149 -7.015451 4.428657 10.079058 33.954934 3.146248 -1.357567 -24.366990 0.000000 -0.000000 0.000000 -0.972388 1.161639 21.921266 4.803577 -2.160470 1.143030 2.753948 -0.639063 2.358488 -1.093933 1.400099 -7.603803 -2.016628 -7.435934 -1.443147 -22.144376 1.162950 2.808614 -38.161000 -3.898595 6.585381 16.396276 -60.199535 1.918621 1.633631 -16.925517 -12.002458 24.390275 -0.842760 2.036816 41.580704 -8.064124 9.185613 -18.573357 45.397748 -3.128588 2.283310 9.938350 -5.396250 
0.041058 0.922669 0.910623 -172.056758 1.570023 80.393949 7.040896 -2.582732 -14.017328 -11.756287 -12.953613 45.417669 2.078718 8.600493 -32.000456 0.000000 -0.000000 0.000000 1.400169 5.137751 -10.182809 4.462093 8.839753 48.035245 -0.116715 -6.122463 -35.678639 0.000000 -0.000000 0.000000 -0.858517 0.625301 26.444795 5.147890 -0.991721 0.658356 3.065166 -0.421879 3.600462 0.168288 2.659637 -10.091177 -3.402676 -6.523813 -3.060504 -23.476079 -0.960033 1.450443 -40.582414 -5.557621 5.485020 17.071060 -54.723012 2.167614 3.045962 -15.313656 -11.366340 25.331412 2.327015 1.876099 42.621821 -5.445398 8.721617 -20.223022 39.231484 -2.498563 1.745633 9.043172 -2.216347 
